# xmcd CD database file
#
# Track frame offsets:
#	150
#	28621
#	47800
#	73854
#	92991
#	111058
#	137332
#	158679
#	176550
#	213648
#	228847
#	253414
#	279013
#	304579
#	326495
#
# Disc length: 4754 seconds
#
# Revision: 0
# Processed by: cddbd v1.5.2PL0 Copyright (c) Steve Scherf et al.
# Submitted via: CDex 2.02
#
DISCID=cd12900f
DTITLE=Ron Spielman - Tip My Tongue
DYEAR=2018
DGENRE=Jazz
TTITLE0=New Master
TTITLE1=Wrap Up
TTITLE2=Frozen By Fire
TTITLE3=Token of Love
TTITLE4=Tip of My Tongue
TTITLE5=The Lonely Fretboard Highway
TTITLE6=Sweet Angel
TTITLE7=Moon Lights the Ocean
TTITLE8=Nineth Song
TTITLE9=Something Sweet
TTITLE10=Bronze Age Love Story
TTITLE11=Tattoos and Rings
TTITLE12=Watergirl
TTITLE13=You Make Me Happy
TTITLE14=Three Views of a Secret
EXTD=YEAR: 2018
EXTT0=
EXTT1=
EXTT2=
EXTT3=
EXTT4=
EXTT5=
EXTT6=
EXTT7=
EXTT8=
EXTT9=
EXTT10=
EXTT11=
EXTT12=
EXTT13=
EXTT14=
PLAYORDER=
